<?xml version="1.0" encoding="UTF-8"?>
<!-- Generated by Pixelmator Pro 3.7 -->
<svg width="1024" height="1024" viewBox="0 0 1024 1024" xmlns="http://www.w3.org/2000/svg">
    <g id="Settings">
        <g id="Group">
            <g id="g1">
                <path id="Path" fill="#ffffff" stroke="none" d="M 204.800003 728.177734 C 204.800003 740.745667 214.987656 750.93335 227.555557 750.93335 L 750.93335 750.93335 C 763.501221 750.93335 773.688904 740.745667 773.688904 728.177734 L 773.688904 329.955566 L 204.800003 329.955566 L 204.800003 728.177734 Z"/>
                <path id="path1" fill="#dae3e6" stroke="none" d="M 204.800003 341.333313 L 204.800003 250.311096 C 204.800003 237.743225 214.987656 227.555542 227.555557 227.555542 L 750.93335 227.555542 C 763.501221 227.555542 773.688904 237.743225 773.688904 250.311096 L 773.688904 341.333313 L 204.800003 341.333313 Z"/>
                <path id="path2" fill="#ff5f57" stroke="none" d="M 238.933334 284.444458 C 238.933334 271.876587 249.120987 261.688904 261.688904 261.688904 C 274.256805 261.688904 284.444458 271.876587 284.444458 284.444458 C 284.444458 297.012329 274.256805 307.200012 261.688904 307.200012 C 249.120987 307.200012 238.933334 297.012329 238.933334 284.444458 Z"/>
                <path id="path3" fill="#ffbb30" stroke="none" d="M 307.200012 284.444458 C 307.200012 271.876587 317.387665 261.688904 329.955566 261.688904 C 342.523468 261.688904 352.711121 271.876587 352.711121 284.444458 C 352.711121 297.012329 342.523468 307.200012 329.955566 307.200012 C 317.387665 307.200012 307.200012 297.012329 307.200012 284.444458 Z"/>
                <path id="path4" fill="#28c840" stroke="none" d="M 375.466675 284.444458 C 375.466675 271.876587 385.654327 261.688904 398.222229 261.688904 C 410.7901 261.688904 420.977783 271.876587 420.977783 284.444458 C 420.977783 297.012329 410.7901 307.200012 398.222229 307.200012 C 385.654327 307.200012 375.466675 297.012329 375.466675 284.444458 Z"/>
            </g>
            <path id="path5" fill="#5e5e5e" stroke="none" d="M 557.511108 694.044434 C 557.511108 618.639404 618.639343 557.511108 694.044434 557.511108 C 769.449585 557.511108 830.577759 618.639404 830.577759 694.044434 C 830.577759 769.449585 769.449585 830.577759 694.044434 830.577759 C 618.639343 830.577759 557.511108 769.449585 557.511108 694.044434 Z"/>
            <path id="path6" fill="#e3f3ff" stroke="none" d="M 785.06665 706.599854 L 785.06665 681.489075 L 763.476196 674.292603 C 761.939087 668.880249 759.794373 663.727173 757.106934 658.913269 L 767.284363 638.55957 L 749.529358 620.804565 L 729.1745 630.981995 C 724.361694 628.294556 719.208679 626.149841 713.796265 624.612671 L 706.599854 603.022217 L 681.489075 603.022217 L 674.292603 624.612671 C 668.880188 626.149841 663.727234 628.294556 658.913269 630.981995 L 638.55957 620.804565 L 620.804565 638.55957 L 630.981995 658.913269 C 628.294556 663.727173 626.149841 668.880249 624.612671 674.292603 L 603.022217 681.489075 L 603.022217 706.599854 L 624.612671 713.796265 C 626.149841 719.208679 628.294556 724.361694 630.981995 729.174438 L 620.804565 749.529297 L 638.55957 767.284363 L 658.913269 757.106934 C 663.727234 759.794373 668.880188 761.939087 674.292603 763.476196 L 681.489075 785.06665 L 706.599854 785.06665 L 713.796265 763.476196 C 719.208679 761.939087 724.361694 759.794373 729.1745 757.106934 L 749.529358 767.284363 L 767.284363 749.529297 L 757.106934 729.174438 C 759.794373 724.361694 761.939087 719.208679 763.476196 713.796265 L 785.06665 706.599854 Z M 694.044434 728.414429 C 675.061768 728.414429 659.674438 713.0271 659.674438 694.044434 C 659.674438 675.061768 675.061768 659.674438 694.044434 659.674438 C 713.0271 659.674438 728.414429 675.061768 728.414429 694.044434 C 728.414429 713.0271 713.0271 728.414429 694.044434 728.414429 Z"/>
        </g>
    </g>
</svg>
