<?xml version="1.0" encoding="UTF-8"?>
<!-- Generated by Pixelmator Pro 3.7 -->
<svg width="1024" height="1024" viewBox="0 0 1024 1024" xmlns="http://www.w3.org/2000/svg">
    <g id="Group">
        <path id="Path" fill="#dee8eb" stroke="none" d="M 225.279999 747.52002 C 225.279999 758.831055 234.448883 768 245.759995 768 L 675.840027 768 C 687.151123 768 696.320007 758.831055 696.320007 747.52002 L 696.320007 430.080017 L 225.279999 430.080017 L 225.279999 747.52002 Z"/>
        <path id="path1" fill="#b1c5cc" stroke="none" d="M 225.279999 450.559998 L 225.279999 378.880005 C 225.279999 367.568909 234.448883 358.400024 245.759995 358.400024 L 675.840027 358.400024 C 687.151123 358.400024 696.320007 367.568909 696.320007 378.880005 L 696.320007 450.559998 L 225.279999 450.559998 Z"/>
        <path id="path2" fill="#0d1852" stroke="none" opacity="0.15" d="M 675.840027 768 L 445.43692 768 L 332.796906 655.359985 L 332.796906 358.400024 L 696.320007 358.400024 L 696.320007 747.52002 C 696.320007 758.831055 687.151123 768 675.840027 768 Z"/>
        <path id="path3" fill="#ffffff" stroke="none" d="M 327.679993 645.119995 C 327.679993 656.431091 336.848907 665.599976 348.160004 665.599976 L 778.23999 665.599976 C 789.551086 665.599976 798.719971 656.431091 798.719971 645.119995 L 798.719971 327.679993 L 327.679993 327.679993 L 327.679993 645.119995 Z"/>
        <path id="path4" fill="#dae3e6" stroke="none" d="M 327.679993 348.159973 L 327.679993 276.47998 C 327.679993 265.168884 336.848907 256 348.160004 256 L 778.23999 256 C 789.551086 256 798.719971 265.168884 798.719971 276.47998 L 798.719971 348.159973 L 327.679993 348.159973 Z"/>
        <path id="path5" fill="#ff5f57" stroke="none" d="M 358.399994 302.080017 C 358.399994 293.597168 365.277191 286.719971 373.76001 286.719971 C 382.242798 286.719971 389.119995 293.597168 389.119995 302.080017 C 389.119995 310.562805 382.242798 317.440002 373.76001 317.440002 C 365.277191 317.440002 358.399994 310.562805 358.399994 302.080017 Z"/>
        <path id="path6" fill="#ffbb30" stroke="none" d="M 409.600006 302.080017 C 409.600006 293.597168 416.477173 286.719971 424.959991 286.719971 C 433.44281 286.719971 440.320007 293.597168 440.320007 302.080017 C 440.320007 310.562805 433.44281 317.440002 424.959991 317.440002 C 416.477173 317.440002 409.600006 310.562805 409.600006 302.080017 Z"/>
        <path id="path7" fill="#28c840" stroke="none" d="M 460.799988 302.080017 C 460.799988 293.597168 467.677185 286.719971 476.160004 286.719971 C 484.642822 286.719971 491.519989 293.597168 491.519989 302.080017 C 491.519989 310.562805 484.642822 317.440002 476.160004 317.440002 C 467.677185 317.440002 460.799988 310.562805 460.799988 302.080017 Z"/>
    </g>
    <g id="g1">
        <path id="path8" fill="#ee392e" fill-opacity="0.9" stroke="none" d="M 672 256.723999 C 672 186.883667 728.616516 130.267212 798.456787 130.267212 C 868.297058 130.267212 924.913574 186.883667 924.913574 256.723999 C 924.913574 326.56427 868.297058 383.180786 798.456787 383.180786 C 728.616516 383.180786 672 326.56427 672 256.723999 Z"/>
        <path id="path9" fill="#ffffff" stroke="none" d="M 870.181702 308.887817 L 818.017883 256.723999 L 869.983643 204.560913 C 870.77417 203.770386 870.77417 202.584534 869.983643 201.794067 L 853.188782 184.999146 C 852.398193 184.208557 851.213135 184.208557 850.422607 184.999146 L 798.456787 237.162903 L 746.491028 185.197144 C 745.7005 184.406616 744.515381 184.406616 743.724854 185.197144 L 726.929932 201.992065 C 726.139404 202.782593 726.139404 203.967651 726.929932 204.758179 L 778.697754 256.723999 L 726.731995 308.689758 C 725.941406 309.480286 725.941406 310.665405 726.731995 311.455933 L 743.526855 328.250854 C 744.317383 329.041382 745.7005 329.041382 746.293762 328.250854 L 798.456787 276.285034 L 850.422607 328.250854 C 851.213135 329.041382 852.596252 329.041382 853.386719 328.448792 L 870.181702 311.653931 C 870.972168 310.863403 870.972168 309.677612 870.181702 308.887817 Z"/>
    </g>
</svg>
