<?xml version="1.0" encoding="UTF-8" standalone="no"?>
<svg
   id="Layer_1"
   style="enable-background:new 0 0 100 100;"
   version="1.1"
   viewBox="0 0 100 100"
   xml:space="preserve"
   sodipodi:docname="2697649_apple_store_app_app store_apps_icon.svg"
   inkscape:export-filename="2697649_apple_store_app_app store_apps_icon.png"
   inkscape:export-xdpi="983.03998"
   inkscape:export-ydpi="983.03998"
   inkscape:version="1.2.1 (9c6d41e, 2022-07-14)"
   xmlns:inkscape="http://www.inkscape.org/namespaces/inkscape"
   xmlns:sodipodi="http://sodipodi.sourceforge.net/DTD/sodipodi-0.dtd"
   xmlns="http://www.w3.org/2000/svg"
   xmlns:svg="http://www.w3.org/2000/svg"><defs
     id="defs147" /><sodipodi:namedview
     id="namedview145"
     pagecolor="#ffffff"
     bordercolor="#000000"
     borderopacity="0.25"
     inkscape:showpageshadow="2"
     inkscape:pageopacity="0.0"
     inkscape:pagecheckerboard="0"
     inkscape:deskcolor="#d1d1d1"
     showgrid="false"
     inkscape:zoom="2.36"
     inkscape:cx="50.211864"
     inkscape:cy="50.211864"
     inkscape:window-width="1728"
     inkscape:window-height="997"
     inkscape:window-x="0"
     inkscape:window-y="38"
     inkscape:window-maximized="1"
     inkscape:current-layer="Layer_1" /><style
     type="text/css"
     id="style125">
	.st0{fill:url(#Background_13_);}
	.st1{fill:url(#path-2_7_);}
	.st2{filter:url(#Adobe_OpacityMaskFilter);}
	.st3{fill:#FFFFFF;}
	.st4{mask:url(#mask-3_1_);fill:#FFFFFF;}
	.st5{fill:url(#SVGID_1_);}
	.st6{fill:#1E1E1F;}
	.st7{fill:url(#Oval_6_);}
	.st8{stroke:#000000;stroke-width:0.3;}
	.st9{fill:#2B2A2A;}
	.st10{fill:#FF9500;}
	.st11{fill:url(#Background_14_);}
	.st12{fill:url(#path-2_8_);}
	.st13{filter:url(#Adobe_OpacityMaskFilter_1_);}
	.st14{mask:url(#mask-3_2_);}
	.st15{fill:#FFFFFF;fill-opacity:0.7;}
	.st16{fill:url(#Background_15_);}
	.st17{fill:url(#Background_16_);}
	.st18{fill:url(#Background_17_);}
	.st19{filter:url(#Adobe_OpacityMaskFilter_2_);}
	.st20{mask:url(#mask-2_6_);fill-opacity:0.29;}
	.st21{filter:url(#Adobe_OpacityMaskFilter_3_);}
	.st22{mask:url(#mask-2_5_);}
	.st23{fill:url(#path-4_2_);}
	.st24{filter:url(#Adobe_OpacityMaskFilter_4_);}
	.st25{mask:url(#mask-2_4_);}
	.st26{fill:#AAAAAA;}
	.st27{fill:url(#Background_18_);}
	.st28{fill:#141416;}
	.st29{filter:url(#Adobe_OpacityMaskFilter_5_);}
	.st30{mask:url(#mask-2_3_);fill:url(#Chart_1_);stroke:#FFFFFF;stroke-width:0.75;}
	.st31{filter:url(#Adobe_OpacityMaskFilter_6_);}
	.st32{mask:url(#mask-2_2_);}
	.st33{fill:#01A6F1;}
	.st34{filter:url(#Adobe_OpacityMaskFilter_7_);}
	.st35{mask:url(#mask-2_1_);fill:#777778;}
	.st36{fill:url(#Background_19_);}
	.st37{fill:#2E2E30;}
	.st38{fill:#7F7F7F;}
	.st39{fill:#777777;}
	.st40{fill:none;}
	.st41{fill:url(#SVGID_2_);}
	.st42{fill:url(#Oval_7_);}
	.st43{filter:url(#Adobe_OpacityMaskFilter_8_);}
	.st44{mask:url(#mask-3_3_);fill:#FF1414;}
	.st45{filter:url(#Adobe_OpacityMaskFilter_9_);}
	.st46{mask:url(#mask-2_8_);}
	.st47{fill:#1BADF8;}
	.st48{fill:#63DA38;}
	.st49{filter:url(#Adobe_OpacityMaskFilter_10_);}
	.st50{mask:url(#mask-2_7_);}
	.st51{fill:#B7B7B7;}
	.st52{filter:url(#Adobe_OpacityMaskFilter_11_);}
	.st53{mask:url(#mask-2_24_);fill:url(#Red_1_);}
	.st54{filter:url(#Adobe_OpacityMaskFilter_12_);}
	.st55{mask:url(#mask-2_23_);fill:url(#Orange_1_);}
	.st56{filter:url(#Adobe_OpacityMaskFilter_13_);}
	.st57{mask:url(#mask-2_22_);fill:url(#Yellow_1_);}
	.st58{filter:url(#Adobe_OpacityMaskFilter_14_);}
	.st59{mask:url(#mask-2_21_);fill:url(#Green_1_);}
	.st60{filter:url(#Adobe_OpacityMaskFilter_15_);}
	.st61{mask:url(#mask-2_20_);fill:url(#Turquoise_1_);}
	.st62{filter:url(#Adobe_OpacityMaskFilter_16_);}
	.st63{mask:url(#mask-2_19_);fill:url(#Blue_1_);}
	.st64{filter:url(#Adobe_OpacityMaskFilter_17_);}
	.st65{mask:url(#mask-2_18_);fill:url(#Purple_1_);}
	.st66{filter:url(#Adobe_OpacityMaskFilter_18_);}
	.st67{mask:url(#mask-2_17_);fill:url(#Pink_1_);}
	.st68{fill:url(#Background_20_);}
	.st69{fill:#353535;}
	.st70{fill:url(#SVGID_3_);}
</style><g
     id="Symbols"><linearGradient
       gradientTransform="matrix(60 0 0 -60 -17169 44901)"
       gradientUnits="userSpaceOnUse"
       id="path-2_7_"
       x1="286.9831"
       x2="286.9831"
       y1="748.2662"
       y2="746.7667"><stop
         offset="0"
         style="stop-color:#19E6FF"
         id="stop127" /><stop
         offset="1"
         style="stop-color:#1E51EE"
         id="stop129" /></linearGradient><path
       class="st1"
       d="M63.6,5c9,0,13.5,0,18.4,1.5c5.3,1.9,9.5,6.1,11.4,11.4C95,22.8,95,27.4,95,36.4v27.2   c0,9,0,13.5-1.5,18.4c-1.9,5.3-6.1,9.5-11.4,11.4C77.1,95,72.6,95,63.6,95H36.4c-9,0-13.5,0-18.4-1.5C12.6,91.5,8.5,87.4,6.5,82   C5,77.2,5,72.7,5,63.6V36.4c0-9,0-13.5,1.5-18.4C8.5,12.7,12.6,8.5,18,6.6C22.8,5,27.3,5,36.4,5H63.6z"
       id="path-2_1_" /><defs
       id="defs136"><filter
         filterUnits="userSpaceOnUse"
         height="58.1"
         id="Adobe_OpacityMaskFilter"
         width="66.2"
         x="17"
         y="21.5"><feColorMatrix
           type="matrix"
           values="1 0 0 0 0  0 1 0 0 0  0 0 1 0 0  0 0 0 1 0"
           id="feColorMatrix133" /></filter></defs><mask
       height="58.1"
       id="mask-3_1_"
       maskUnits="userSpaceOnUse"
       width="66.2"
       x="17"
       y="21.5"><g
         class="st2"
         id="g139"><path
           class="st3"
           d="M63.6,5c9,0,13.5,0,18.4,1.5c5.3,1.9,9.5,6.1,11.4,11.4C95,22.8,95,27.4,95,36.4v27.2     c0,9,0,13.5-1.5,18.4c-1.9,5.3-6.1,9.5-11.4,11.4C77.1,95,72.6,95,63.6,95H36.4c-9,0-13.5,0-18.4-1.5C12.6,91.5,8.5,87.4,6.5,82     C5,77.2,5,72.7,5,63.6V36.4c0-9,0-13.5,1.5-18.4C8.5,12.7,12.6,8.5,18,6.6C22.8,5,27.3,5,36.4,5H63.6z"
           id="path-2_2_" /></g></mask></g><g
     id="g284"
     transform="translate(-24.361872,-22.753508)"><path
       d="m 76.471813,45.321347 c 0,-0.615276 -0.26837,-1.199849 -0.735545,-1.600708 -0.466682,-0.400764 -1.084961,-0.578037 -1.693436,-0.485061 l -29.539788,4.515413 c -1.030294,0.157921 -1.79118,1.04354 -1.79118,2.085758 v 45.82917 c 0,1.041918 0.760803,1.928118 1.790873,2.085933 l 29.540095,4.519618 c 0.60809,0.0928 1.226754,-0.0839 1.693436,-0.48487 0.46677,-0.40082 0.735545,-0.98579 0.735545,-1.60107 V 72.751336 h 21.826693 l -4.206918,3.686993 c -0.875229,0.767651 -0.964296,2.100289 -0.197856,2.977627 0.76593,0.876942 2.096919,0.965562 2.972568,0.198294 l 8.42607,-7.38499 c 0.45745,-0.400612 0.71951,-0.97951 0.71951,-1.587965 0,-0.608462 -0.26195,-1.18728 -0.71951,-1.587933 l -8.426076,-7.384993 c -0.875649,-0.767316 -2.206638,-0.67847 -2.972568,0.198356 -0.766371,0.877001 -0.67731,2.210025 0.197827,2.977405 l 4.207294,3.687068 H 76.471775 Z M 65.921852,78.026348 c -1.74799,0 -3.165,-1.417109 -3.165,-3.165 0,-1.747936 1.41701,-3.165 3.165,-3.165 1.747946,0 3.165,1.417064 3.165,3.165 0,1.747891 -1.417054,3.165 -3.165,3.165 z"
       fill="#212121"
       id="path9"
       style="fill:#ffffff;stroke-width:4.22001" /><path
       d="M 82.801802,98.071319 H 80.691864 V 76.971315 h 4.219981 v 18.989968 c 0,1.165165 -0.944841,2.110036 -2.110043,2.110036 z"
       fill="#212121"
       id="path11"
       style="fill:#ffffff;stroke-width:4.22001" /><path
       d="M 80.691864,64.311341 V 47.431349 h 2.109938 c 1.165202,0 2.110043,0.944656 2.110043,2.109999 v 14.769993 z"
       fill="#212121"
       id="path13"
       style="fill:#ffffff;stroke-width:4.22001" /></g></svg>
