<?xml version="1.0" encoding="UTF-8" standalone="no"?>
<!DOCTYPE svg PUBLIC "-//W3C//DTD SVG 1.1//EN" "http://www.w3.org/Graphics/SVG/1.1/DTD/svg11.dtd">
<!-- Created with Vectornator (http://vectornator.io/) -->
<svg height="100%" stroke-miterlimit="10" style="fill-rule:nonzero;clip-rule:evenodd;stroke-linecap:round;stroke-linejoin:round;" version="1.1" viewBox="0 0 100 100" width="100%" xml:space="preserve" xmlns="http://www.w3.org/2000/svg" xmlns:vectornator="http://vectornator.io" xmlns:xlink="http://www.w3.org/1999/xlink">
<defs>
<filter color-interpolation-filters="sRGB" filterUnits="userSpaceOnUse" height="60" id="Filter" width="60" x="47.1713" y="1.45546">
<feDropShadow dx="-1.21869" dy="9.92546" flood-color="#000000" flood-opacity="0.333" in="SourceGraphic" result="Shadow" stdDeviation="5"/>
</filter>
</defs>
<clipPath id="ArtboardFrame">
<rect height="100" width="100" x="0" y="0"/>
</clipPath>
<g clip-path="url(#ArtboardFrame)" id="AppIcon" vectornator:layerName="AppIcon">
<path d="M90 62.0889C90 70.0889 90 74.0889 88.6667 78.4444C86.9778 83.1556 83.2444 86.8889 78.5333 88.5778C74.1778 90 70.0889 90 62.0889 90L37.9111 90C29.9111 90 25.9111 90 21.5556 88.6667C16.8444 86.9778 13.1111 83.2444 11.4222 78.5333C10 74.0889 10 70.0889 10 62.0889L10 37.9111C10 29.9111 10 25.9111 11.3333 21.5556C13.1111 16.7556 16.7556 13.1111 21.5556 11.3333C25.8222 10 29.8222 10 37.9111 10L62.0889 10C70.0889 10 74.0889 10 78.4444 11.3333C83.1556 13.1111 86.8889 16.7556 88.5778 21.5556C90 25.8222 90 29.8222 90 37.9111L90 62.0889Z" fill="#4185e3" fill-rule="nonzero" opacity="1" stroke="none" vectornator:layerName="path"/>
<g opacity="1">
<path d="M22 73C22 74.1046 22.8954 75 24 75L66 75C67.1046 75 68 74.1046 68 73L68 42L22 42L22 73Z" fill="#dee8eb" fill-rule="nonzero" opacity="1" stroke="none" vectornator:layerName="path"/>
<path d="M22 44L22 37C22 35.8954 22.8954 35 24 35L66 35C67.1046 35 68 35.8954 68 37L68 44L22 44Z" fill="#b1c5cc" fill-rule="nonzero" opacity="1" stroke="none" vectornator:layerName="path"/>
<path d="M66 75L43.4997 75L32.4997 64L32.4997 35L68 35L68 73C68 74.1046 67.1046 75 66 75Z" fill="#0d1852" fill-rule="nonzero" opacity="0.15" stroke="none" vectornator:layerName="path"/>
<path d="M32 63C32 64.1046 32.8954 65 34 65L76 65C77.1046 65 78 64.1046 78 63L78 32L32 32L32 63Z" fill="#ffffff" fill-rule="nonzero" opacity="1" stroke="none" vectornator:layerName="path"/>
<path d="M32 34L32 27C32 25.8954 32.8954 25 34 25L76 25C77.1046 25 78 25.8954 78 27L78 34L32 34Z" fill="#dae3e6" fill-rule="nonzero" opacity="1" stroke="none" vectornator:layerName="path"/>
<path d="M35 29.5C35 28.6716 35.6716 28 36.5 28C37.3284 28 38 28.6716 38 29.5C38 30.3284 37.3284 31 36.5 31C35.6716 31 35 30.3284 35 29.5Z" fill="#ff5f57" fill-rule="nonzero" opacity="1" stroke="none" vectornator:layerName="circle"/>
<path d="M40 29.5C40 28.6716 40.6716 28 41.5 28C42.3284 28 43 28.6716 43 29.5C43 30.3284 42.3284 31 41.5 31C40.6716 31 40 30.3284 40 29.5Z" fill="#ffbb30" fill-rule="nonzero" opacity="1" stroke="none" vectornator:layerName="circle"/>
<path d="M45 29.5C45 28.6716 45.6716 28 46.5 28C47.3284 28 48 28.6716 48 29.5C48 30.3284 47.3284 31 46.5 31C45.6716 31 45 30.3284 45 29.5Z" fill="#28c840" fill-rule="nonzero" opacity="1" stroke="none" vectornator:layerName="circle"/>
</g>
<g filter="url(#Filter)" vectornator:shadowAngle="1.69297" vectornator:shadowColor="#000000" vectornator:shadowOffset="10" vectornator:shadowOpacity="0.333" vectornator:shadowRadius="10">
<path d="M60.89 21.53C60.89 11.865 68.725 4.03 78.39 4.03C88.055 4.03 95.89 11.865 95.89 21.53C95.89 31.195 88.055 39.03 78.39 39.03C68.725 39.03 60.89 31.195 60.89 21.53Z" fill="#ee392e" fill-opacity="0.9" fill-rule="nonzero" opacity="1" stroke="none" vectornator:layerName="circle"/>
<path d="M88.3158 28.7488L81.097 21.53L88.2884 14.3113C88.3978 14.2019 88.3978 14.0378 88.2884 13.9284L85.9642 11.6042C85.8548 11.4948 85.6908 11.4948 85.5814 11.6042L78.39 18.823L71.1986 11.6316C71.0892 11.5222 70.9252 11.5222 70.8158 11.6316L68.4916 13.9558C68.3822 14.0652 68.3822 14.2292 68.4916 14.3386L75.6556 21.53L68.4642 28.7214C68.3548 28.8308 68.3548 28.9948 68.4642 29.1042L70.7884 31.4284C70.8978 31.5378 71.0892 31.5378 71.1713 31.4284L78.39 24.237L85.5814 31.4284C85.6908 31.5378 85.8822 31.5378 85.9916 31.4558L88.3158 29.1316C88.4252 29.0222 88.4252 28.8581 88.3158 28.7488Z" fill="#ffffff" fill-rule="nonzero" opacity="1" stroke="none" vectornator:layerName="path"/>
</g>
</g>
</svg>
